<?xml version="1.0" standalone="no"?>
<!DOCTYPE svg PUBLIC "-//W3C//DTD SVG 20010904//EN"
 "http://www.w3.org/TR/2001/REC-SVG-20010904/DTD/svg10.dtd">
<svg version="1.0" xmlns="http://www.w3.org/2000/svg"
 width="355.000000pt" height="355.000000pt" viewBox="0 0 355.000000 355.000000"
 preserveAspectRatio="xMidYMid meet">
<metadata>
Created by potrace 1.14, written by Peter Selinger 2001-2017
</metadata>
<g transform="translate(0.000000,355.000000) scale(0.100000,-0.100000)"
fill="#000000" stroke="none">
<path d="M2692 3525 c-192 -43 -358 -180 -436 -358 -33 -74 -47 -140 -52 -230
l-4 -79 -292 -289 c-200 -198 -295 -286 -303 -279 -6 5 -151 149 -323 319
l-311 310 -81 165 c-79 164 -80 166 -127 187 -27 12 -106 50 -176 85 -71 35
-133 64 -139 64 -6 0 -64 -54 -130 -119 l-119 -119 51 -102 c49 -97 50 -103
35 -126 -14 -23 -12 -30 61 -176 l77 -153 66 -32 c282 -135 229 -96 521 -388
l265 -265 -254 -254 -255 -255 -60 0 c-257 -2 -491 -165 -581 -405 -33 -88
-40 -129 -38 -241 1 -66 8 -111 27 -170 14 -44 28 -98 31 -120 8 -50 32 -135
45 -155 7 -12 51 27 212 187 129 129 217 208 240 218 47 19 99 19 145 0 l37
-16 -207 -207 c-249 -250 -252 -257 -122 -305 22 -9 53 -18 69 -22 l29 -6 -61
-62 c-34 -35 -62 -66 -62 -69 0 -4 33 -18 73 -30 100 -31 244 -31 342 -1 215
67 359 241 400 483 3 19 15 61 25 93 11 31 20 64 20 73 0 14 439 458 446 451
1 -1 236 -234 521 -518 317 -316 534 -524 558 -536 135 -69 265 -39 393 90 80
81 111 140 119 225 3 31 13 75 23 97 51 114 47 232 -13 335 -11 19 -229 244
-485 499 l-465 463 164 164 164 164 95 4 c122 5 207 32 304 97 122 81 200 195
231 334 9 39 27 106 40 150 48 159 49 271 3 416 -25 80 -35 94 -72 103 -27 7
-41 -5 -237 -201 -115 -114 -223 -214 -240 -221 -16 -7 -42 -11 -57 -8 -15 2
-32 5 -37 5 -6 1 -23 11 -38 23 l-28 22 182 182 181 181 -43 16 c-24 9 -50 17
-57 19 -8 2 20 37 66 83 44 44 83 90 87 102 24 82 -257 150 -443 108z"/>
</g>
</svg>
